<?xml version="1.0" encoding="utf-8"?>
<!-- Generator: Adobe Illustrator 23.0.1, SVG Export Plug-In . SVG Version: 6.00 Build 0)  -->
<svg version="1.1" id="Livello_1" xmlns="http://www.w3.org/2000/svg" xmlns:xlink="http://www.w3.org/1999/xlink" x="0px" y="0px"
	 viewBox="0 0 348.66 99.21" style="enable-background:new 0 0 348.66 99.21;" xml:space="preserve" width="325px">
<style type="text/css">
	.st0{fill:url(#SVGID_1_);}
	.st1{fill:url(#SVGID_2_);}
	.st2{filter:url(#Adobe_OpacityMaskFilter);}
	.st3{fill:url(#SVGID_4_);}
	.st4{opacity:0.4;mask:url(#SVGID_3_);}
	.st5{fill:#FFFFFF;stroke:#FFFFFF;stroke-width:0.75;stroke-linecap:round;stroke-linejoin:round;stroke-miterlimit:10;}
	.st6{filter:url(#Adobe_OpacityMaskFilter_1_);}
	.st7{fill:url(#SVGID_6_);}
	.st8{opacity:0.4;mask:url(#SVGID_5_);}
	.st9{fill:none;stroke:#C0797B;stroke-width:2;stroke-miterlimit:10;}
	.st10{fill:#C0797B;}
	.st11{fill:none;stroke:#C0797B;stroke-miterlimit:10;}
	.st12{fill:#4EBABA;}
	.st13{fill:#FFFFFF;}
	.st14{fill:url(#SVGID_7_);}
	.st15{fill:url(#SVGID_8_);}
</style>
<g>
	<linearGradient id="SVGID_1_" gradientUnits="userSpaceOnUse" x1="25.376" y1="110.3954" x2="25.9612" y2="26.4182">
		<stop  offset="0" style="stop-color:#ED9090"/>
		<stop  offset="0.2623" style="stop-color:#EE9394"/>
		<stop  offset="0.5083" style="stop-color:#F09E9F"/>
		<stop  offset="0.7477" style="stop-color:#F3AFB2"/>
		<stop  offset="0.9819" style="stop-color:#F8C6CE"/>
		<stop  offset="0.9984" style="stop-color:#F8C8D0"/>
	</linearGradient>
	<path class="st0" d="M37.92,6.43C31.09,7.16,17.86,15.29,9.18,42.4S1.77,96.26,7.56,97.34s9.4-0.72,20.97,0
		c11.57,0.72,19.52-4.34,19.52-14.28s-1.45-16.63,0-27.83s-1.45-21.69-1.27-28.74C46.96,19.45,46.42,5.53,37.92,6.43z"/>
	<linearGradient id="SVGID_2_" gradientUnits="userSpaceOnUse" x1="81.4602" y1="110.7862" x2="82.0455" y2="26.809">
		<stop  offset="0" style="stop-color:#ED9090"/>
		<stop  offset="0.2623" style="stop-color:#EE9394"/>
		<stop  offset="0.5083" style="stop-color:#F09E9F"/>
		<stop  offset="0.7477" style="stop-color:#F3AFB2"/>
		<stop  offset="0.9819" style="stop-color:#F8C6CE"/>
		<stop  offset="0.9984" style="stop-color:#F8C8D0"/>
	</linearGradient>
	<path class="st1" d="M60.94,29.6c0.85-1.41,1.31-3.02,1.26-4.66c-0.17-5.57,0.4-16.75,5.78-18.56c6.64-2.23,16.43,5.98,21.84,15.77
		s11.88,19.92,15.03,40.19c3.15,20.27,0.17,33.55-3.84,34.77s-22.02-2.62-28.31-4.72c-6.29-2.1-12.3-2.5-10.52-14.7
		s2.83-12.38,0.91-16.23s-6.9-13.12-5.33-22.21C58.62,34.25,59.94,31.27,60.94,29.6z"/>
	<defs>
		<filter id="Adobe_OpacityMaskFilter" filterUnits="userSpaceOnUse" x="57.38" y="21.48" width="42.09" height="63.44">
			<feColorMatrix  type="matrix" values="1 0 0 0 0  0 1 0 0 0  0 0 1 0 0  0 0 0 1 0"/>
		</filter>
	</defs>
	<mask maskUnits="userSpaceOnUse" x="57.38" y="21.48" width="42.09" height="63.44" id="SVGID_3_">
		<g class="st2">
			
				<radialGradient id="SVGID_4_" cx="60.8388" cy="37.7849" r="55.7978" gradientTransform="matrix(0.6574 0.7536 -0.3469 0.3026 33.9523 -19.4955)" gradientUnits="userSpaceOnUse">
				<stop  offset="0" style="stop-color:#FFFFFF"/>
				<stop  offset="0.1021" style="stop-color:#F2F2F2"/>
				<stop  offset="0.3066" style="stop-color:#D0D0D0"/>
				<stop  offset="0.5946" style="stop-color:#939393"/>
				<stop  offset="0.9523" style="stop-color:#2B2B2A"/>
				<stop  offset="1" style="stop-color:#000000"/>
			</radialGradient>
			<path class="st3" d="M60.94,29.6c0.85-1.41,1.31-3.02,1.26-4.66c-0.17-5.57,0.4-16.75,5.78-18.56
				c6.64-2.23,16.43,5.98,21.84,15.77s11.88,19.92,15.03,40.19c3.15,20.27,0.17,33.55-3.84,34.77s-22.02-2.62-28.31-4.72
				c-6.29-2.1-12.3-2.5-10.52-14.7s2.83-12.38,0.91-16.23s-6.9-13.12-5.33-22.21C58.62,34.25,59.94,31.27,60.94,29.6z"/>
		</g>
	</mask>
	<g class="st4">
		<g>
			<path class="st5" d="M86.29,70.15c0.81-3.46-10.2-18.14-12.99-20.81c-2.9-2.78-8.71-5.32-11.2-7.32
				c-2.66-2.14-4.34-2.77-4.34-2.77l1.68-5.95l1.06,1.1c0,0,5.62,7.22,12.13,7.92c6.52,0.7,11.33-4.81,12.03-7.22
				s-1.48-3.91-2.85-7.32s-2.17-4.65-2.17-5.93c0.2,0.62,4.41,11.4,5.82,11.07c1.4-0.33,5.11-1.13,5.62-1.58
				c0.5-0.45-2.81,1.45-4.21,3.66c-1.4,2.21-4.69,5.92-5.05,8.32c-0.36,2.41-0.08,2.79,2.53,5s6.93,2.02,10.34,1.92
				c3.41-0.1,4.41,0.01,4.41,0.01s-6.82,1.6-10.93,0.59c-4.11-1,1.1,0.2,2.91,3.81c1.8,3.61,2.09,5.54,2.09,5.54
				s-1.89-4.52-4.3-6.33c-2.41-1.82-5.41-2.02-8.22-4.82c-2.81-2.81-5.21-2.31-5.21-2.31s5.07,7.71,7.42,11.53
				c5.99,9.74,12.89,9.81,10.79,10.03c-1.38,0.15-4.07-2.31-2.76,1.5c1.3,3.81,3.21,7.56,4.21,10.35c1,2.79,4.01,4.39,4.01,4.39
				s-3.68-1.44-5.08-5.37S90.17,71,89.37,69.9c-0.8-1.1,0.2,6.32,0,8.72c-0.2,2.41-1.91,5.92-1.91,5.92s2.79-7.3,0.2-15.14
				c0.3,3.71-3.29,10.73-5.86,11.83C83.65,78.43,86.79,74.16,86.29,70.15z"/>
			<path class="st5" d="M77.55,74.52c0,0,8.24-3.82,8.7-5.52C85.48,71.58,88.93,71.78,77.55,74.52z"/>
		</g>
		<path class="st5" d="M84.19,32.15c-1.88-1.26-5.76-4.38-5.76-4.38s2.2,2.71,4.49,4.59c0.86,0.7,1.46,1.67,1.74,2.75l0,0
			L84.19,32.15z"/>
	</g>
	<defs>
		<filter id="Adobe_OpacityMaskFilter_1_" filterUnits="userSpaceOnUse" x="14.2" y="19.65" width="34.09" height="66.53">
			<feColorMatrix  type="matrix" values="1 0 0 0 0  0 1 0 0 0  0 0 1 0 0  0 0 0 1 0"/>
		</filter>
	</defs>
	<mask maskUnits="userSpaceOnUse" x="14.2" y="19.65" width="34.09" height="66.53" id="SVGID_5_">
		<g class="st6">
			
				<radialGradient id="SVGID_6_" cx="39.2223" cy="40.8389" r="54.6998" gradientTransform="matrix(-0.5011 0.8654 -0.3379 -0.1956 72.6743 14.8849)" gradientUnits="userSpaceOnUse">
				<stop  offset="0" style="stop-color:#FFFFFF"/>
				<stop  offset="0.0914" style="stop-color:#F5F5F5"/>
				<stop  offset="0.2635" style="stop-color:#DBDBDB"/>
				<stop  offset="0.4981" style="stop-color:#ADADAC"/>
				<stop  offset="0.7826" style="stop-color:#666565"/>
				<stop  offset="1" style="stop-color:#000000"/>
			</radialGradient>
			<path class="st7" d="M37.92,6.43C31.09,7.16,17.86,15.29,9.18,42.4S1.77,96.26,7.56,97.34s9.4-0.72,20.97,0
				c11.57,0.72,19.52-4.34,19.52-14.28s-1.45-16.63,0-27.83s-1.45-21.69-1.27-28.74C46.96,19.45,46.42,5.53,37.92,6.43z"/>
		</g>
	</mask>
	<g class="st8">
		<path class="st5" d="M18.76,31.35c0,0,7.14,2.48,6.94,5.64c-0.61,1.94-5.92,7.35-5.92,8.16c0,0.82,3.27-4.35,5.92-4.73
			c2.65-0.38,9.18,0.44,9.79,1.36c0.61,0.92-2.57,7.43-4.08,9.89c-1.94,3.17-8.47,6.53-10.81,7.45s3.88-0.82,3.47,0
			s-2.55,2.4-1.84,2.83c0.71,0.43,4.9-3.65,6.12-3.85s-2.65,6.02-5.51,7.65c-2.86,1.63-6.94,3.98-8.16,4.49s8.47-2.55,9.59-3.37
			c1.12-0.82-8.89,8.47-9.7,10.61c2.56-1.84,6.64-4.57,7.35-3.92c0.71,0.65-2.65,4.73-2.14,5.14c0.51,0.41,3.87-6.22,5.92-9.28
			s4.19-6.63,4.9-7.04c0.71-0.41,1.27,5.45-1.62,8.6C24.37,76,22.96,77.8,23.26,78c0.31,0.2,6.93-6.94,7.44-7.45
			c0.51-0.51-0.51,7.35-2.14,9.59c0.51-0.21,2.24-2.04,2.24-2.04s-1.94,6.94-1.84,7.55c0.1,0.61,0.92-2.04,1.43-2.14
			c0.51-0.1,2.14,2.73,2.65,2.23c0.51-0.5-1.67-6.21-1.04-8.05c0.63-1.84,3.28,3.98,4.2,3.37c0.92-0.61-3.67-3.86-3.47-7.49
			c0.2-3.63-0.32-10.35,0.29-15s2.56-8.63,4.3-10.77s9.54-8.65,10.23-9.38s0.48-5.83-1.66-4.19c-2.14,1.63-7.14,4.71-9.59,4.19
			c-2.45-0.52-6.73-1.85-6.63-2.87c0.1-1.02,3.81-12.68,5.1-15.41c-2.35,5.31-4.59,8.37-4.69,8.77c-0.1,0.41,0.51-7.35,0.31-8.77
			c-0.2-1.43-0.97,9.75-3.57,12C24.85,33.86,18.76,31.35,18.76,31.35z"/>
		<path class="st5" d="M30.45,52.91c-2.09,1.23-4.44-1.24-4.44-1.24s2.77,2.86,3.6,2.05C30.45,52.91,30.45,52.91,30.45,52.91z"/>
	</g>
	<path class="st9" d="M37.92,6.43C31.09,7.16,17.86,15.29,9.18,42.4S1.77,96.26,7.56,97.34s9.4-0.72,20.97,0
		c11.57,0.72,19.52-4.34,19.52-14.28s-1.45-16.63,0-27.83s-1.45-21.69-1.27-28.74C46.96,19.45,46.42,5.53,37.92,6.43z"/>
	<g>
		<path class="st10" d="M41.72,15.47c-0.09,1.85-0.03,3.71,0.18,5.55c0.22,1.83,0.6,3.66,1.42,5.28c0.79,1.65,2.14,2.93,3.1,4.61
			c0.97,1.68,1.4,3.59,1.64,5.46l-0.99,0.1c-0.15-1.81-0.48-3.61-1.31-5.2c-0.81-1.59-2.14-3-2.89-4.76
			c-0.79-1.74-1.08-3.62-1.22-5.48C41.52,19.18,41.55,17.32,41.72,15.47z"/>
	</g>
	<path class="st11" d="M32.01,86.95c5.83-3.16,10.07-8.58,11.15-12.38c1.45-5.06,3.92-9.4,4.4-14.37"/>
	<g>
		<path class="st10" d="M15.69,94.63c0.25-0.74,0.76-1.35,1.32-1.89c0.56-0.54,1.19-1,1.86-1.4c1.34-0.8,2.81-1.37,4.3-1.81
			c1.49-0.48,3.04-0.68,4.47-1.16c1.44-0.47,2.83-1.1,4.13-1.86l0.48,0.88c-1.41,0.71-2.88,1.29-4.4,1.7
			c-1.53,0.42-3.08,0.54-4.55,0.93c-1.48,0.36-2.95,0.84-4.3,1.55c-0.68,0.35-1.32,0.77-1.9,1.27
			C16.52,93.33,15.98,93.91,15.69,94.63z"/>
	</g>
	<path class="st9" d="M60.94,29.6c0.85-1.41,1.31-3.02,1.26-4.66c-0.17-5.57,0.4-16.75,5.78-18.56c6.64-2.23,16.43,5.98,21.84,15.77
		s11.88,19.92,15.03,40.19c3.15,20.27,0.17,33.55-3.84,34.77s-22.02-2.62-28.31-4.72c-6.29-2.1-12.3-2.5-10.52-14.7
		s2.83-12.38,0.91-16.23s-6.9-13.12-5.33-22.21C58.62,34.25,59.94,31.27,60.94,29.6z"/>
	<g>
		<path class="st10" d="M66.05,14.11c1,1.17,1.83,2.54,2.16,4.08c0.16,0.77,0.17,1.59-0.05,2.37c-0.2,0.8-0.71,1.46-1.15,2.08
			c-0.92,1.27-2.02,2.39-3.06,3.52c-1.04,1.12-1.98,2.31-2.56,3.66l-0.9-0.43c0.73-1.46,1.81-2.67,2.93-3.75
			c1.11-1.09,2.24-2.12,3.2-3.3c0.48-0.6,0.97-1.18,1.19-1.89c0.24-0.7,0.28-1.46,0.16-2.21C67.73,16.73,66.99,15.33,66.05,14.11z"
			/>
	</g>
	<g>
		<path class="st10" d="M63.5,61.18c2.34,3.32,5.22,6.41,8.63,8.65c1.7,1.1,3.67,1.85,5.48,2.92c1.81,1.05,3.58,2.25,5,3.84
			c1.41,1.59,2.33,3.67,2.31,5.81c0,2.09-0.14,4.16,0.15,6.21c0.28,2.03,1.09,4.04,2.62,5.46c1.49,1.46,3.48,2.27,5.47,2.82
			c-2-0.5-4.02-1.28-5.56-2.72c-1.58-1.4-2.46-3.45-2.78-5.51c-0.34-2.07-0.24-4.18-0.28-6.24c-0.03-2.05-0.94-3.99-2.31-5.48
			c-1.39-1.49-3.13-2.63-4.93-3.62c-1.79-1.01-3.76-1.71-5.58-2.83c-3.59-2.27-6.56-5.32-9.06-8.73L63.5,61.18z"/>
	</g>
	<g>
		<g>
			<path class="st10" d="M46.23,32.37c1.46-2.17,2.82-4.59,3.46-7.07c0.07-0.31,0.14-0.62,0.17-0.93c0.03-0.29,0.06-0.61,0.06-0.97
				l0.06-2.06l0.12-4.12l0.5-16.47l0.5,16.47l0.12,4.12l0.06,2.06c0.02,0.33,0.02,0.7,0,1.09c-0.02,0.38-0.07,0.74-0.13,1.11
				c-0.27,1.44-0.75,2.8-1.32,4.09c-0.57,1.3-1.2,2.54-1.95,3.78L46.23,32.37z"/>
		</g>
	</g>
	<g>
		<g>
			<path class="st10" d="M58.58,32.66c-0.67-1.2-1.27-2.43-1.78-3.72c-0.5-1.29-0.94-2.62-1.1-4.07c-0.04-0.35-0.04-0.75-0.04-1.09
				l0.03-1l0.06-2l0.12-4l0.5-16.01l0.5,16.01l0.12,4l0.06,2l0.03,1c0.02,0.32,0.03,0.6,0.09,0.9c0.2,1.2,0.67,2.41,1.21,3.57
				c0.55,1.16,1.2,2.3,1.89,3.39L58.58,32.66z"/>
		</g>
		<path class="st9" d="M57.96,39.35c-1.19-1.18-3.16-2.92-4.47-2.92c-1.99,0-5.5,4-5.5,4"/>
	</g>
	<g>
		<g>
			<path class="st12" d="M153.14,41.7h-12.46l-2.18,7.05h-9.72l13.84-37.73h8.55l13.94,37.73h-9.77L153.14,41.7z M142.85,34.67h8.11
				l-4.07-13.08L142.85,34.67z"/>
			<path class="st12" d="M180.2,48.74h-9.07V11.02h9.07V48.74z"/>
			<path class="st12" d="M203.19,35.4h-4.92v13.34h-9.09V11.02h14.85c4.47,0,7.97,0.99,10.49,2.98c2.52,1.98,3.78,4.79,3.78,8.41
				c0,2.62-0.53,4.8-1.59,6.52s-2.73,3.12-4.99,4.19l7.88,15.23v0.39h-9.74L203.19,35.4z M198.27,28.4h5.75
				c1.73,0,3.03-0.45,3.9-1.36s1.31-2.18,1.31-3.81c0-1.63-0.44-2.9-1.32-3.83c-0.88-0.93-2.18-1.39-3.89-1.39h-5.75V28.4z"/>
			<path class="st12" d="M235.54,35.94v12.8h-9.09V11.02h15.05c2.88,0,5.44,0.53,7.66,1.59c2.22,1.06,3.94,2.57,5.16,4.53
				c1.22,1.96,1.83,4.18,1.83,6.67c0,3.68-1.32,6.62-3.95,8.82c-2.63,2.2-6.25,3.3-10.84,3.3H235.54z M235.54,28.92h5.96
				c1.76,0,3.1-0.44,4.03-1.32s1.39-2.12,1.39-3.73c0-1.76-0.48-3.17-1.42-4.22c-0.95-1.05-2.25-1.59-3.89-1.61h-6.06V28.92z"/>
			<path class="st12" d="M272.73,35.94v12.8h-9.09V11.02h15.05c2.88,0,5.44,0.53,7.66,1.59c2.22,1.06,3.94,2.57,5.16,4.53
				c1.22,1.96,1.83,4.18,1.83,6.67c0,3.68-1.32,6.62-3.95,8.82c-2.63,2.2-6.25,3.3-10.84,3.3H272.73z M272.73,28.92h5.96
				c1.76,0,3.1-0.44,4.03-1.32s1.39-2.12,1.39-3.73c0-1.76-0.48-3.17-1.42-4.22c-0.95-1.05-2.25-1.59-3.89-1.61h-6.06V28.92z"/>
		</g>
		<g>
			<path class="st12" d="M135.43,70.21h-4.46l-0.85,2.54h-2.7l4.59-12.34h2.36l4.62,12.34h-2.7L135.43,70.21z M131.66,68.15h3.09
				l-1.55-4.62L131.66,68.15z"/>
			<path class="st12" d="M144.95,70.21c0-0.3-0.15-0.54-0.44-0.71c-0.3-0.17-0.77-0.33-1.43-0.46c-2.18-0.46-3.27-1.38-3.27-2.78
				c0-0.81,0.34-1.49,1.01-2.04c0.68-0.54,1.56-0.82,2.65-0.82c1.16,0,2.1,0.27,2.79,0.82c0.7,0.55,1.05,1.26,1.05,2.14h-2.45
				c0-0.35-0.11-0.64-0.34-0.87c-0.23-0.23-0.58-0.34-1.06-0.34c-0.41,0-0.73,0.09-0.96,0.28c-0.23,0.19-0.34,0.42-0.34,0.71
				c0,0.27,0.13,0.49,0.39,0.66c0.26,0.17,0.69,0.31,1.3,0.43c0.61,0.12,1.12,0.26,1.54,0.41c1.29,0.47,1.94,1.3,1.94,2.47
				c0,0.84-0.36,1.51-1.08,2.03c-0.72,0.52-1.64,0.78-2.78,0.78c-0.77,0-1.45-0.14-2.05-0.41c-0.6-0.27-1.06-0.65-1.4-1.13
				c-0.34-0.48-0.51-0.99-0.51-1.55h2.32c0.02,0.43,0.18,0.77,0.48,1c0.3,0.23,0.7,0.35,1.2,0.35c0.47,0,0.82-0.09,1.06-0.27
				C144.83,70.74,144.95,70.5,144.95,70.21z"/>
			<path class="st12" d="M153.88,70.21c0-0.3-0.15-0.54-0.44-0.71c-0.3-0.17-0.77-0.33-1.43-0.46c-2.18-0.46-3.27-1.38-3.27-2.78
				c0-0.81,0.34-1.49,1.01-2.04c0.68-0.54,1.56-0.82,2.65-0.82c1.16,0,2.1,0.27,2.79,0.82c0.7,0.55,1.05,1.26,1.05,2.14h-2.45
				c0-0.35-0.11-0.64-0.34-0.87c-0.23-0.23-0.58-0.34-1.06-0.34c-0.41,0-0.73,0.09-0.96,0.28c-0.23,0.19-0.34,0.42-0.34,0.71
				c0,0.27,0.13,0.49,0.39,0.66c0.26,0.17,0.69,0.31,1.3,0.43c0.61,0.12,1.12,0.26,1.54,0.41c1.29,0.47,1.94,1.3,1.94,2.47
				c0,0.84-0.36,1.51-1.08,2.03c-0.72,0.52-1.64,0.78-2.78,0.78c-0.77,0-1.45-0.14-2.05-0.41c-0.6-0.27-1.06-0.65-1.4-1.13
				c-0.34-0.48-0.51-0.99-0.51-1.55h2.32c0.02,0.43,0.18,0.77,0.48,1c0.3,0.23,0.7,0.35,1.2,0.35c0.47,0,0.82-0.09,1.06-0.27
				C153.76,70.74,153.88,70.5,153.88,70.21z"/>
			<path class="st12" d="M157.46,68.08c0-0.91,0.17-1.72,0.53-2.43c0.35-0.71,0.85-1.26,1.51-1.65c0.66-0.39,1.42-0.58,2.29-0.58
				c1.24,0,2.25,0.38,3.03,1.14c0.78,0.76,1.22,1.79,1.31,3.09l0.02,0.63c0,1.41-0.39,2.54-1.18,3.39
				c-0.79,0.85-1.84,1.28-3.16,1.28s-2.38-0.42-3.17-1.27c-0.79-0.85-1.18-2-1.18-3.46V68.08z M159.91,68.25
				c0,0.87,0.16,1.54,0.49,2c0.33,0.46,0.8,0.69,1.41,0.69c0.59,0,1.06-0.23,1.39-0.68c0.33-0.46,0.5-1.18,0.5-2.19
				c0-0.85-0.17-1.52-0.5-1.99c-0.33-0.47-0.8-0.71-1.41-0.71c-0.6,0-1.06,0.23-1.39,0.7C160.07,66.55,159.91,67.27,159.91,68.25z"
				/>
			<path class="st12" d="M171.47,70.94c0.45,0,0.82-0.12,1.1-0.37c0.28-0.25,0.43-0.58,0.44-0.99h2.3c0,0.62-0.17,1.19-0.51,1.71
				c-0.33,0.52-0.79,0.92-1.37,1.2c-0.58,0.29-1.22,0.43-1.92,0.43c-1.31,0-2.34-0.42-3.1-1.25c-0.76-0.83-1.14-1.99-1.14-3.45
				v-0.16c0-1.41,0.38-2.54,1.13-3.38c0.75-0.84,1.78-1.26,3.09-1.26c1.15,0,2.07,0.33,2.76,0.98c0.69,0.65,1.04,1.52,1.05,2.61
				h-2.3c-0.01-0.48-0.16-0.87-0.44-1.16c-0.28-0.3-0.66-0.45-1.12-0.45c-0.57,0-1,0.21-1.29,0.62s-0.44,1.09-0.44,2.03v0.25
				c0,0.95,0.14,1.62,0.43,2.04C170.44,70.74,170.88,70.94,171.47,70.94z"/>
			<path class="st12" d="M176.69,61.2c0-0.37,0.12-0.67,0.37-0.91s0.58-0.36,1.01-0.36c0.42,0,0.75,0.12,1,0.36
				c0.25,0.24,0.37,0.54,0.37,0.91c0,0.37-0.13,0.68-0.38,0.92c-0.25,0.24-0.58,0.36-1,0.36c-0.41,0-0.75-0.12-1-0.36
				C176.82,61.88,176.69,61.58,176.69,61.2z M179.29,72.75h-2.46v-9.17h2.46V72.75z"/>
			<path class="st12" d="M186.63,72.75c-0.11-0.22-0.2-0.49-0.25-0.82c-0.59,0.66-1.37,0.99-2.31,0.99c-0.9,0-1.64-0.26-2.23-0.78
				c-0.59-0.52-0.89-1.18-0.89-1.97c0-0.97,0.36-1.72,1.08-2.24c0.72-0.52,1.76-0.78,3.12-0.79h1.13v-0.53
				c0-0.42-0.11-0.76-0.33-1.02c-0.22-0.25-0.56-0.38-1.03-0.38c-0.41,0-0.74,0.1-0.97,0.3c-0.24,0.2-0.35,0.47-0.35,0.81h-2.45
				c0-0.53,0.16-1.02,0.49-1.48s0.79-0.81,1.39-1.06c0.6-0.26,1.27-0.39,2.02-0.39c1.13,0,2.03,0.28,2.69,0.85s1,1.37,1,2.39v3.98
				c0.01,0.87,0.13,1.53,0.36,1.97v0.14H186.63z M184.6,71.04c0.36,0,0.7-0.08,1-0.24c0.31-0.16,0.53-0.38,0.68-0.65v-1.58h-0.92
				c-1.23,0-1.88,0.42-1.96,1.27l-0.01,0.14c0,0.3,0.11,0.56,0.32,0.75C183.93,70.95,184.23,71.04,184.6,71.04z"/>
			<path class="st12" d="M193.43,70.77h4.48v1.98h-7.61v-1.49l4.32-5.71h-4.19v-1.98h7.35v1.44L193.43,70.77z"/>
			<path class="st12" d="M199.44,61.2c0-0.37,0.12-0.67,0.37-0.91s0.58-0.36,1-0.36c0.42,0,0.75,0.12,1,0.36
				c0.25,0.24,0.37,0.54,0.37,0.91c0,0.37-0.13,0.68-0.38,0.92c-0.25,0.24-0.58,0.36-1,0.36c-0.41,0-0.75-0.12-1-0.36
				C199.56,61.88,199.44,61.58,199.44,61.2z M202.04,72.75h-2.46v-9.17h2.46V72.75z"/>
			<path class="st12" d="M203.68,68.08c0-0.91,0.17-1.72,0.53-2.43c0.35-0.71,0.85-1.26,1.51-1.65c0.66-0.39,1.42-0.58,2.29-0.58
				c1.24,0,2.25,0.38,3.03,1.14c0.78,0.76,1.22,1.79,1.31,3.09l0.02,0.63c0,1.41-0.39,2.54-1.18,3.39
				c-0.79,0.85-1.84,1.28-3.16,1.28s-2.38-0.42-3.17-1.27c-0.79-0.85-1.18-2-1.18-3.46V68.08z M206.13,68.25
				c0,0.87,0.16,1.54,0.49,2c0.33,0.46,0.8,0.69,1.41,0.69c0.59,0,1.06-0.23,1.39-0.68c0.33-0.46,0.5-1.18,0.5-2.19
				c0-0.85-0.17-1.52-0.5-1.99c-0.33-0.47-0.8-0.71-1.41-0.71c-0.6,0-1.06,0.23-1.39,0.7C206.29,66.55,206.13,67.27,206.13,68.25z"
				/>
			<path class="st12" d="M216.13,63.58l0.08,1.06c0.66-0.82,1.53-1.23,2.64-1.23c0.97,0,1.7,0.29,2.17,0.86
				c0.47,0.57,0.72,1.42,0.73,2.56v5.93h-2.45v-5.88c0-0.52-0.11-0.9-0.34-1.13c-0.23-0.23-0.6-0.35-1.13-0.35
				c-0.69,0-1.21,0.29-1.55,0.88v6.48h-2.45v-9.17H216.13z"/>
			<path class="st12" d="M227.82,72.92c-1.35,0-2.44-0.41-3.29-1.24s-1.27-1.92-1.27-3.3v-0.24c0-0.92,0.18-1.75,0.53-2.47
				c0.36-0.73,0.86-1.29,1.51-1.68c0.65-0.39,1.4-0.59,2.23-0.59c1.25,0,2.24,0.4,2.96,1.19s1.08,1.91,1.08,3.37v1h-5.84
				c0.08,0.6,0.32,1.08,0.72,1.44c0.4,0.36,0.9,0.54,1.51,0.54c0.94,0,1.68-0.34,2.21-1.03l1.2,1.35c-0.37,0.52-0.86,0.93-1.49,1.22
				C229.28,72.77,228.58,72.92,227.82,72.92z M227.54,65.38c-0.49,0-0.88,0.17-1.18,0.49c-0.3,0.33-0.5,0.8-0.58,1.41h3.41v-0.2
				c-0.01-0.54-0.16-0.97-0.44-1.26C228.46,65.53,228.06,65.38,227.54,65.38z"/>
			<path class="st12" d="M240.17,72.75h-2.54V60.41h2.54V72.75z"/>
			<path class="st12" d="M245.3,61.32v2.25h1.57v1.8h-1.57v4.58c0,0.34,0.07,0.58,0.2,0.73c0.13,0.15,0.38,0.22,0.75,0.22
				c0.27,0,0.51-0.02,0.72-0.06v1.86c-0.48,0.15-0.98,0.22-1.48,0.22c-1.72,0-2.59-0.87-2.63-2.6v-4.94h-1.34v-1.8h1.34v-2.25H245.3
				z"/>
			<path class="st12" d="M253.55,72.75c-0.11-0.22-0.2-0.49-0.25-0.82c-0.59,0.66-1.37,0.99-2.31,0.99c-0.9,0-1.64-0.26-2.23-0.78
				c-0.59-0.52-0.89-1.18-0.89-1.97c0-0.97,0.36-1.72,1.08-2.24c0.72-0.52,1.76-0.78,3.12-0.79h1.13v-0.53
				c0-0.42-0.11-0.76-0.33-1.02c-0.22-0.25-0.56-0.38-1.03-0.38c-0.41,0-0.74,0.1-0.97,0.3c-0.24,0.2-0.35,0.47-0.35,0.81h-2.45
				c0-0.53,0.16-1.02,0.49-1.48s0.79-0.81,1.39-1.06c0.6-0.26,1.27-0.39,2.02-0.39c1.13,0,2.03,0.28,2.69,0.85s1,1.37,1,2.39v3.98
				c0.01,0.87,0.13,1.53,0.36,1.97v0.14H253.55z M251.52,71.04c0.36,0,0.7-0.08,1-0.24c0.31-0.16,0.53-0.38,0.68-0.65v-1.58h-0.92
				c-1.23,0-1.88,0.42-1.96,1.27l-0.01,0.14c0,0.3,0.11,0.56,0.32,0.75C250.85,70.95,251.15,71.04,251.52,71.04z"/>
			<path class="st12" d="M260.13,72.75h-2.46V59.73h2.46V72.75z"/>
			<path class="st12" d="M262.13,61.2c0-0.37,0.12-0.67,0.37-0.91s0.58-0.36,1-0.36c0.42,0,0.75,0.12,1,0.36
				c0.25,0.24,0.37,0.54,0.37,0.91c0,0.37-0.13,0.68-0.38,0.92c-0.25,0.24-0.58,0.36-1,0.36c-0.41,0-0.75-0.12-1-0.36
				C262.25,61.88,262.13,61.58,262.13,61.2z M264.73,72.75h-2.46v-9.17h2.46V72.75z"/>
			<path class="st12" d="M272.06,72.75c-0.11-0.22-0.2-0.49-0.25-0.82c-0.59,0.66-1.37,0.99-2.31,0.99c-0.9,0-1.64-0.26-2.23-0.78
				c-0.59-0.52-0.89-1.18-0.89-1.97c0-0.97,0.36-1.72,1.08-2.24c0.72-0.52,1.76-0.78,3.12-0.79h1.13v-0.53
				c0-0.42-0.11-0.76-0.33-1.02c-0.22-0.25-0.56-0.38-1.03-0.38c-0.41,0-0.74,0.1-0.97,0.3c-0.24,0.2-0.35,0.47-0.35,0.81h-2.45
				c0-0.53,0.16-1.02,0.49-1.48s0.79-0.81,1.39-1.06c0.6-0.26,1.27-0.39,2.02-0.39c1.13,0,2.03,0.28,2.69,0.85s1,1.37,1,2.39v3.98
				c0.01,0.87,0.13,1.53,0.36,1.97v0.14H272.06z M270.04,71.04c0.36,0,0.7-0.08,1-0.24c0.31-0.16,0.53-0.38,0.68-0.65v-1.58h-0.92
				c-1.23,0-1.88,0.42-1.96,1.27l-0.01,0.14c0,0.3,0.11,0.56,0.32,0.75C269.37,70.95,269.66,71.04,270.04,71.04z"/>
			<path class="st12" d="M278.31,63.58l0.08,1.06c0.66-0.82,1.53-1.23,2.64-1.23c0.97,0,1.7,0.29,2.17,0.86
				c0.47,0.57,0.72,1.42,0.73,2.56v5.93h-2.45v-5.88c0-0.52-0.11-0.9-0.34-1.13c-0.23-0.23-0.6-0.35-1.13-0.35
				c-0.69,0-1.21,0.29-1.55,0.88v6.48H276v-9.17H278.31z"/>
			<path class="st12" d="M291.1,72.75c-0.11-0.22-0.2-0.49-0.25-0.82c-0.59,0.66-1.37,0.99-2.31,0.99c-0.9,0-1.64-0.26-2.23-0.78
				c-0.59-0.52-0.89-1.18-0.89-1.97c0-0.97,0.36-1.72,1.08-2.24c0.72-0.52,1.76-0.78,3.12-0.79h1.13v-0.53
				c0-0.42-0.11-0.76-0.33-1.02c-0.22-0.25-0.56-0.38-1.03-0.38c-0.41,0-0.74,0.1-0.97,0.3c-0.24,0.2-0.35,0.47-0.35,0.81h-2.45
				c0-0.53,0.16-1.02,0.49-1.48s0.79-0.81,1.39-1.06c0.6-0.26,1.27-0.39,2.02-0.39c1.13,0,2.03,0.28,2.69,0.85s1,1.37,1,2.39v3.98
				c0.01,0.87,0.13,1.53,0.36,1.97v0.14H291.1z M289.07,71.04c0.36,0,0.7-0.08,1-0.24c0.31-0.16,0.53-0.38,0.68-0.65v-1.58h-0.92
				c-1.23,0-1.88,0.42-1.96,1.27l-0.01,0.14c0,0.3,0.11,0.56,0.32,0.75C288.4,70.95,288.7,71.04,289.07,71.04z"/>
			<path class="st12" d="M133.03,87.65h-2.03v4.52h-2.54V79.83h4.59c1.46,0,2.58,0.32,3.37,0.97c0.79,0.65,1.19,1.57,1.19,2.75
				c0,0.84-0.18,1.54-0.55,2.11c-0.36,0.56-0.92,1.01-1.66,1.34l2.67,5.04v0.12h-2.73L133.03,87.65z M131.01,85.59h2.05
				c0.64,0,1.13-0.16,1.48-0.49c0.35-0.32,0.53-0.77,0.53-1.34c0-0.58-0.17-1.04-0.5-1.37c-0.33-0.33-0.84-0.5-1.52-0.5h-2.04V85.59
				z"/>
			<path class="st12" d="M139.36,80.62c0-0.37,0.12-0.67,0.37-0.91c0.25-0.24,0.58-0.36,1-0.36c0.42,0,0.75,0.12,1,0.36
				c0.25,0.24,0.37,0.54,0.37,0.91c0,0.37-0.13,0.68-0.38,0.92s-0.58,0.36-1,0.36s-0.74-0.12-1-0.36S139.36,81,139.36,80.62z
				 M141.97,92.17h-2.46V83h2.46V92.17z"/>
			<path class="st12" d="M147.8,90.37c0.45,0,0.82-0.12,1.1-0.37s0.43-0.58,0.44-0.99h2.3c-0.01,0.62-0.18,1.19-0.51,1.71
				c-0.33,0.52-0.79,0.92-1.37,1.2c-0.58,0.29-1.22,0.43-1.92,0.43c-1.31,0-2.35-0.42-3.1-1.25c-0.76-0.83-1.14-1.99-1.14-3.45
				v-0.16c0-1.41,0.38-2.54,1.13-3.38c0.75-0.84,1.78-1.26,3.09-1.26c1.15,0,2.07,0.33,2.76,0.98c0.69,0.65,1.04,1.52,1.06,2.61
				h-2.3c-0.01-0.48-0.16-0.87-0.44-1.16c-0.28-0.3-0.66-0.45-1.12-0.45c-0.57,0-1,0.21-1.29,0.62c-0.29,0.42-0.44,1.09-0.44,2.03
				v0.25c0,0.95,0.14,1.62,0.43,2.04C146.77,90.16,147.21,90.37,147.8,90.37z"/>
			<path class="st12" d="M157.26,92.34c-1.35,0-2.44-0.41-3.29-1.24c-0.85-0.83-1.27-1.92-1.27-3.3v-0.24
				c0-0.92,0.18-1.75,0.53-2.47c0.36-0.73,0.86-1.29,1.51-1.68s1.4-0.59,2.23-0.59c1.25,0,2.24,0.4,2.96,1.19s1.08,1.91,1.08,3.37v1
				h-5.84c0.08,0.6,0.32,1.08,0.72,1.44c0.4,0.36,0.9,0.54,1.51,0.54c0.94,0,1.68-0.34,2.21-1.03l1.2,1.35
				c-0.37,0.52-0.86,0.93-1.49,1.22C158.72,92.2,158.02,92.34,157.26,92.34z M156.98,84.8c-0.49,0-0.88,0.17-1.18,0.49
				s-0.5,0.8-0.58,1.41h3.41v-0.2c-0.01-0.54-0.16-0.97-0.44-1.26C157.9,84.95,157.5,84.8,156.98,84.8z"/>
			<path class="st12" d="M167.58,85.3c-0.33-0.04-0.63-0.07-0.88-0.07c-0.93,0-1.53,0.31-1.82,0.94v6h-2.45V83h2.31l0.07,1.09
				c0.49-0.84,1.17-1.26,2.04-1.26c0.27,0,0.53,0.04,0.76,0.11L167.58,85.3z"/>
			<path class="st12" d="M172.41,90.37c0.45,0,0.82-0.12,1.1-0.37c0.28-0.25,0.43-0.58,0.44-0.99h2.3c0,0.62-0.17,1.19-0.51,1.71
				c-0.33,0.52-0.79,0.92-1.37,1.2c-0.58,0.29-1.22,0.43-1.92,0.43c-1.31,0-2.34-0.42-3.1-1.25c-0.76-0.83-1.14-1.99-1.14-3.45
				v-0.16c0-1.41,0.38-2.54,1.13-3.38c0.75-0.84,1.78-1.26,3.09-1.26c1.15,0,2.07,0.33,2.76,0.98c0.69,0.65,1.04,1.52,1.05,2.61
				h-2.3c-0.01-0.48-0.16-0.87-0.44-1.16c-0.28-0.3-0.66-0.45-1.12-0.45c-0.57,0-1,0.21-1.29,0.62s-0.44,1.09-0.44,2.03v0.25
				c0,0.95,0.14,1.62,0.43,2.04C171.38,90.16,171.82,90.37,172.41,90.37z"/>
			<path class="st12" d="M182.97,92.17c-0.11-0.22-0.2-0.49-0.25-0.82c-0.59,0.66-1.37,0.99-2.31,0.99c-0.9,0-1.64-0.26-2.23-0.78
				c-0.59-0.52-0.89-1.18-0.89-1.97c0-0.97,0.36-1.72,1.08-2.24c0.72-0.52,1.76-0.78,3.12-0.79h1.13v-0.53
				c0-0.42-0.11-0.76-0.33-1.02c-0.22-0.25-0.56-0.38-1.03-0.38c-0.41,0-0.74,0.1-0.97,0.3c-0.24,0.2-0.35,0.47-0.35,0.81h-2.45
				c0-0.53,0.16-1.02,0.49-1.48s0.79-0.81,1.39-1.06c0.6-0.26,1.27-0.39,2.02-0.39c1.13,0,2.03,0.28,2.69,0.85s1,1.37,1,2.39v3.98
				c0.01,0.87,0.13,1.53,0.36,1.97v0.14H182.97z M180.94,90.47c0.36,0,0.7-0.08,1-0.24c0.31-0.16,0.53-0.38,0.68-0.65V88h-0.92
				c-1.23,0-1.88,0.42-1.96,1.27l-0.01,0.14c0,0.3,0.11,0.56,0.32,0.75C180.27,90.37,180.57,90.47,180.94,90.47z"/>
			<path class="st12" d="M193.99,87.82v4.35h-2.54V79.83h4.81c0.93,0,1.74,0.17,2.45,0.51c0.7,0.34,1.24,0.82,1.62,1.45
				c0.38,0.62,0.57,1.33,0.57,2.13c0,1.21-0.41,2.16-1.24,2.86c-0.83,0.7-1.97,1.05-3.44,1.05H193.99z M193.99,85.76h2.27
				c0.67,0,1.19-0.16,1.54-0.47c0.35-0.32,0.53-0.77,0.53-1.36c0-0.6-0.18-1.09-0.53-1.47c-0.36-0.37-0.85-0.56-1.48-0.58h-2.33
				V85.76z"/>
			<path class="st12" d="M207.7,92.17c-0.11-0.22-0.2-0.49-0.25-0.82c-0.59,0.66-1.37,0.99-2.31,0.99c-0.9,0-1.64-0.26-2.23-0.78
				c-0.59-0.52-0.89-1.18-0.89-1.97c0-0.97,0.36-1.72,1.08-2.24c0.72-0.52,1.76-0.78,3.12-0.79h1.13v-0.53
				c0-0.42-0.11-0.76-0.33-1.02c-0.22-0.25-0.56-0.38-1.03-0.38c-0.41,0-0.74,0.1-0.97,0.3c-0.24,0.2-0.35,0.47-0.35,0.81h-2.45
				c0-0.53,0.16-1.02,0.49-1.48s0.79-0.81,1.39-1.06c0.6-0.26,1.27-0.39,2.02-0.39c1.13,0,2.03,0.28,2.69,0.85s1,1.37,1,2.39v3.98
				c0.01,0.87,0.13,1.53,0.36,1.97v0.14H207.7z M205.68,90.47c0.36,0,0.7-0.08,1-0.24c0.31-0.16,0.53-0.38,0.68-0.65V88h-0.92
				c-1.23,0-1.88,0.42-1.96,1.27l-0.01,0.14c0,0.3,0.11,0.56,0.32,0.75C205.01,90.37,205.3,90.47,205.68,90.47z"/>
			<path class="st12" d="M214.63,80.74V83h1.57v1.8h-1.57v4.58c0,0.34,0.07,0.58,0.2,0.73c0.13,0.15,0.38,0.22,0.75,0.22
				c0.27,0,0.51-0.02,0.72-0.06v1.86c-0.48,0.15-0.98,0.22-1.48,0.22c-1.72,0-2.59-0.87-2.63-2.6V84.8h-1.34V83h1.34v-2.25H214.63z"
				/>
			<path class="st12" d="M216.93,87.5c0-0.91,0.17-1.72,0.53-2.43c0.35-0.71,0.85-1.26,1.51-1.65c0.66-0.39,1.42-0.58,2.29-0.58
				c1.24,0,2.25,0.38,3.03,1.14c0.78,0.76,1.22,1.79,1.31,3.09l0.02,0.63c0,1.41-0.39,2.54-1.18,3.39
				c-0.79,0.85-1.84,1.28-3.16,1.28s-2.38-0.42-3.17-1.27c-0.79-0.85-1.18-2-1.18-3.46V87.5z M219.38,87.67c0,0.87,0.16,1.54,0.49,2
				c0.33,0.46,0.8,0.69,1.41,0.69c0.59,0,1.06-0.23,1.39-0.68c0.33-0.46,0.5-1.18,0.5-2.19c0-0.85-0.17-1.52-0.5-1.99
				c-0.33-0.47-0.8-0.71-1.41-0.71c-0.6,0-1.06,0.23-1.39,0.7C219.54,85.97,219.38,86.69,219.38,87.67z"/>
			<path class="st12" d="M229.71,92.17h-2.46V79.15h2.46V92.17z"/>
			<path class="st12" d="M231.35,87.5c0-0.91,0.17-1.72,0.53-2.43c0.35-0.71,0.85-1.26,1.51-1.65c0.66-0.39,1.42-0.58,2.29-0.58
				c1.24,0,2.25,0.38,3.03,1.14c0.78,0.76,1.22,1.79,1.31,3.09l0.02,0.63c0,1.41-0.39,2.54-1.18,3.39
				c-0.79,0.85-1.84,1.28-3.16,1.28s-2.38-0.42-3.17-1.27c-0.79-0.85-1.18-2-1.18-3.46V87.5z M233.8,87.67c0,0.87,0.16,1.54,0.49,2
				c0.33,0.46,0.8,0.69,1.41,0.69c0.59,0,1.06-0.23,1.39-0.68c0.33-0.46,0.5-1.18,0.5-2.19c0-0.85-0.17-1.52-0.5-1.99
				c-0.33-0.47-0.8-0.71-1.41-0.71c-0.6,0-1.06,0.23-1.39,0.7C233.96,85.97,233.8,86.69,233.8,87.67z"/>
			<path class="st12" d="M241.19,87.52c0-1.41,0.33-2.54,1-3.4c0.67-0.86,1.57-1.29,2.71-1.29c1.01,0,1.79,0.34,2.35,1.03l0.1-0.87
				h2.22v8.87c0,0.8-0.18,1.5-0.55,2.09c-0.36,0.59-0.88,1.04-1.54,1.36c-0.66,0.31-1.44,0.47-2.32,0.47c-0.67,0-1.33-0.13-1.97-0.4
				s-1.12-0.62-1.45-1.04l1.08-1.49c0.61,0.68,1.35,1.03,2.22,1.03c0.65,0,1.16-0.17,1.52-0.52c0.36-0.35,0.54-0.84,0.54-1.48v-0.49
				c-0.57,0.64-1.31,0.96-2.23,0.96c-1.1,0-1.99-0.43-2.67-1.29c-0.68-0.86-1.02-2-1.02-3.43V87.52z M243.64,87.69
				c0,0.83,0.17,1.49,0.5,1.96c0.33,0.47,0.79,0.71,1.37,0.71c0.75,0,1.28-0.28,1.6-0.84v-3.88c-0.33-0.56-0.86-0.84-1.58-0.84
				c-0.59,0-1.05,0.24-1.39,0.72C243.8,86.01,243.64,86.73,243.64,87.69z"/>
			<path class="st12" d="M251.44,80.62c0-0.37,0.12-0.67,0.37-0.91s0.58-0.36,1-0.36c0.42,0,0.75,0.12,1,0.36
				c0.25,0.24,0.37,0.54,0.37,0.91c0,0.37-0.13,0.68-0.38,0.92c-0.25,0.24-0.58,0.36-1,0.36c-0.41,0-0.75-0.12-1-0.36
				C251.56,81.3,251.44,81,251.44,80.62z M254.04,92.17h-2.46V83h2.46V92.17z"/>
			<path class="st12" d="M260.28,92.34c-1.35,0-2.44-0.41-3.29-1.24s-1.27-1.92-1.27-3.3v-0.24c0-0.92,0.18-1.75,0.53-2.47
				c0.36-0.73,0.86-1.29,1.51-1.68c0.65-0.39,1.4-0.59,2.23-0.59c1.25,0,2.24,0.4,2.96,1.19s1.08,1.91,1.08,3.37v1h-5.84
				c0.08,0.6,0.32,1.08,0.72,1.44c0.4,0.36,0.9,0.54,1.51,0.54c0.94,0,1.68-0.34,2.21-1.03l1.2,1.35c-0.37,0.52-0.86,0.93-1.49,1.22
				C261.74,92.2,261.04,92.34,260.28,92.34z M260,84.8c-0.49,0-0.88,0.17-1.18,0.49c-0.3,0.33-0.5,0.8-0.58,1.41h3.41v-0.2
				c-0.01-0.54-0.16-0.97-0.44-1.26C260.92,84.95,260.52,84.8,260,84.8z"/>
			<path class="st12" d="M272.47,87.82v4.35h-2.54V79.83h4.81c0.93,0,1.74,0.17,2.45,0.51c0.7,0.34,1.24,0.82,1.62,1.45
				c0.38,0.62,0.57,1.33,0.57,2.13c0,1.21-0.41,2.16-1.24,2.86c-0.83,0.7-1.97,1.05-3.44,1.05H272.47z M272.47,85.76h2.27
				c0.67,0,1.19-0.16,1.54-0.47c0.35-0.32,0.53-0.77,0.53-1.36c0-0.6-0.18-1.09-0.53-1.47c-0.36-0.37-0.85-0.56-1.48-0.58h-2.33
				V85.76z"/>
			<path class="st12" d="M280.47,87.5c0-0.91,0.17-1.72,0.53-2.43c0.35-0.71,0.85-1.26,1.51-1.65c0.66-0.39,1.42-0.58,2.29-0.58
				c1.24,0,2.25,0.38,3.03,1.14c0.78,0.76,1.22,1.79,1.31,3.09l0.02,0.63c0,1.41-0.39,2.54-1.18,3.39
				c-0.79,0.85-1.84,1.28-3.16,1.28s-2.38-0.42-3.17-1.27c-0.79-0.85-1.18-2-1.18-3.46V87.5z M282.92,87.67c0,0.87,0.16,1.54,0.49,2
				c0.33,0.46,0.8,0.69,1.41,0.69c0.59,0,1.06-0.23,1.39-0.68c0.33-0.46,0.5-1.18,0.5-2.19c0-0.85-0.17-1.52-0.5-1.99
				c-0.33-0.47-0.8-0.71-1.41-0.71c-0.6,0-1.06,0.23-1.39,0.7C283.09,85.97,282.92,86.69,282.92,87.67z"/>
			<path class="st12" d="M293.25,92.17h-2.46V79.15h2.46V92.17z"/>
			<path class="st12" d="M297.57,83l0.08,1.03c0.65-0.8,1.53-1.2,2.64-1.2c1.18,0,1.99,0.47,2.43,1.4c0.64-0.93,1.56-1.4,2.76-1.4
				c0.99,0,1.73,0.29,2.22,0.87c0.49,0.58,0.73,1.45,0.73,2.62v5.86h-2.46v-5.86c0-0.52-0.1-0.9-0.3-1.14
				c-0.2-0.24-0.56-0.36-1.08-0.36c-0.73,0-1.24,0.35-1.53,1.05l0.01,6.31h-2.45v-5.85c0-0.53-0.11-0.92-0.31-1.16
				c-0.21-0.24-0.56-0.36-1.07-0.36c-0.7,0-1.2,0.29-1.51,0.87v6.5h-2.45V83H297.57z"/>
			<path class="st12" d="M309.92,87.5c0-0.91,0.17-1.72,0.53-2.43c0.35-0.71,0.85-1.26,1.51-1.65c0.66-0.39,1.42-0.58,2.29-0.58
				c1.24,0,2.25,0.38,3.03,1.14c0.78,0.76,1.22,1.79,1.31,3.09l0.02,0.63c0,1.41-0.39,2.54-1.18,3.39
				c-0.79,0.85-1.84,1.28-3.16,1.28s-2.38-0.42-3.17-1.27c-0.79-0.85-1.18-2-1.18-3.46V87.5z M312.37,87.67c0,0.87,0.16,1.54,0.49,2
				c0.33,0.46,0.8,0.69,1.41,0.69c0.59,0,1.06-0.23,1.39-0.68c0.33-0.46,0.5-1.18,0.5-2.19c0-0.85-0.17-1.52-0.5-1.99
				c-0.33-0.47-0.8-0.71-1.41-0.71c-0.6,0-1.06,0.23-1.39,0.7C312.54,85.97,312.37,86.69,312.37,87.67z"/>
			<path class="st12" d="M322.37,83l0.08,1.06c0.66-0.82,1.53-1.23,2.64-1.23c0.97,0,1.7,0.29,2.17,0.86
				c0.47,0.57,0.72,1.42,0.73,2.56v5.93h-2.45v-5.88c0-0.52-0.11-0.9-0.34-1.13c-0.23-0.23-0.6-0.35-1.13-0.35
				c-0.69,0-1.21,0.29-1.55,0.88v6.48h-2.45V83H322.37z"/>
			<path class="st12" d="M335.16,92.17c-0.11-0.22-0.2-0.49-0.25-0.82c-0.59,0.66-1.37,0.99-2.31,0.99c-0.9,0-1.64-0.26-2.23-0.78
				c-0.59-0.52-0.89-1.18-0.89-1.97c0-0.97,0.36-1.72,1.08-2.24c0.72-0.52,1.76-0.78,3.12-0.79h1.13v-0.53
				c0-0.42-0.11-0.76-0.33-1.02c-0.22-0.25-0.56-0.38-1.03-0.38c-0.41,0-0.74,0.1-0.97,0.3c-0.24,0.2-0.35,0.47-0.35,0.81h-2.45
				c0-0.53,0.16-1.02,0.49-1.48s0.79-0.81,1.39-1.06c0.6-0.26,1.27-0.39,2.02-0.39c1.13,0,2.03,0.28,2.69,0.85s1,1.37,1,2.39v3.98
				c0.01,0.87,0.13,1.53,0.36,1.97v0.14H335.16z M333.13,90.47c0.36,0,0.7-0.08,1-0.24c0.31-0.16,0.53-0.38,0.68-0.65V88h-0.92
				c-1.23,0-1.88,0.42-1.96,1.27l-0.01,0.14c0,0.3,0.11,0.56,0.32,0.75C332.47,90.37,332.76,90.47,333.13,90.47z"/>
			<path class="st12" d="M344.31,85.3c-0.33-0.04-0.63-0.07-0.88-0.07c-0.93,0-1.53,0.31-1.82,0.94v6h-2.45V83h2.31l0.07,1.09
				c0.49-0.84,1.17-1.26,2.04-1.26c0.27,0,0.53,0.04,0.76,0.11L344.31,85.3z"/>
			<path class="st12" d="M345.47,80.62c0-0.37,0.12-0.67,0.37-0.91s0.58-0.36,1-0.36c0.42,0,0.75,0.12,1,0.36
				c0.25,0.24,0.37,0.54,0.37,0.91c0,0.37-0.13,0.68-0.38,0.92c-0.25,0.24-0.58,0.36-1,0.36c-0.41,0-0.75-0.12-1-0.36
				C345.59,81.3,345.47,81,345.47,80.62z M348.07,92.17h-2.46V83h2.46V92.17z"/>
		</g>
	</g>
	<g>
		<path class="st13" d="M27.98,77.41c-10.55,0-20.04-6.67-23.61-16.59l-0.03-0.09l0.02-0.1c1.07-6.25,2.58-12.42,4.47-18.34
			c1.08-3.36,2.27-6.58,3.56-9.56l0.04-0.09l0.08-0.06c4.46-3.5,9.81-5.35,15.48-5.35c7.91,0,15.2,3.62,19.99,9.93l0.06,0.08
			l0.01,0.1c0.61,5.33,1.19,11.56,0.37,17.94c-0.53,4.11-0.72,7.89-0.61,12.26l0,0.13l-0.08,0.11
			C42.93,73.9,35.73,77.41,27.98,77.41z"/>
		<path class="st10" d="M27.98,27.6c8.04,0,15.18,3.84,19.69,9.78c0.62,5.39,1.19,11.5,0.37,17.85c-0.61,4.71-0.7,8.63-0.61,12.32
			c-4.52,5.77-11.55,9.48-19.45,9.48c-10.71,0-19.83-6.81-23.26-16.34c1.01-5.88,2.47-12.07,4.46-18.29
			c1.11-3.48,2.3-6.65,3.55-9.53C16.93,29.57,22.22,27.6,27.98,27.6 M27.98,26.85c-5.76,0-11.19,1.88-15.72,5.44l-0.15,0.12
			l-0.08,0.18c-1.29,3-2.49,6.22-3.57,9.59c-1.9,5.94-3.41,12.12-4.49,18.39l-0.03,0.19l0.07,0.19
			c3.63,10.07,13.26,16.84,23.96,16.84c7.87,0,15.17-3.56,20.04-9.76l0.17-0.21l-0.01-0.27c-0.11-4.36,0.08-8.12,0.6-12.21
			c0.83-6.43,0.24-12.68-0.37-18.03l-0.02-0.2l-0.12-0.16C43.4,30.52,36.01,26.85,27.98,26.85L27.98,26.85z"/>
	</g>
	<linearGradient id="SVGID_7_" gradientUnits="userSpaceOnUse" x1="8.4867" y1="48.2692" x2="44.2452" y2="48.2692">
		<stop  offset="0" style="stop-color:#008497"/>
		<stop  offset="1" style="stop-color:#4EBABA"/>
	</linearGradient>
	<path class="st14" d="M8.52,63.28c0,0,1.17-7.92,7.28-9.22c6.11-1.3,20.47,1.94,24.45,0s4.38-5.89,0.19-10.04
		S26.92,32.65,27.19,28.63s2.95-0.08,2.95-0.08s0.21,2.31,3.92,5.43s13.32,10.42,9.15,19.05s-17.86,4.85-22.96,4.25
		c-5.1-0.6-9.9-2.39-10.96,8.24S8.52,63.28,8.52,63.28z"/>
	<linearGradient id="SVGID_8_" gradientUnits="userSpaceOnUse" x1="13.0481" y1="58.3999" x2="48.5088" y2="58.3999">
		<stop  offset="0" style="stop-color:#4EBABA"/>
		<stop  offset="1" style="stop-color:#008497"/>
	</linearGradient>
	<path class="st15" d="M27.49,75.26c0,0-1.68-3.11-5.14-6.19S9.78,57.31,14.27,49.69s13.64-4.98,18.36-4.12
		c4.71,0.86,15.57,3.27,14.98-5.59c1.46,0.09,1.62,4.8-3.14,7.65s-10.8,0.91-15.76,0.37s-11.54-2.36-13.75,2.23
		s6.01,11.44,8.57,13.65c2.56,2.21,7.62,7.48,7.14,11.22C30.17,78.86,27.49,75.26,27.49,75.26z"/>
	<g>
		<path class="st12" d="M27.98,78.53c-14.46,0-26.22-11.76-26.22-26.21c0-14.46,11.76-26.22,26.22-26.22
			c14.46,0,26.22,11.76,26.22,26.22C54.2,66.77,42.44,78.53,27.98,78.53z M27.98,29.1c-12.8,0-23.22,10.41-23.22,23.22
			c0,12.8,10.41,23.21,23.22,23.21c12.8,0,23.22-10.41,23.22-23.21C51.2,39.51,40.78,29.1,27.98,29.1z"/>
	</g>
</g>
</svg>
