<?xml version="1.0" encoding="utf-8"?>
<!-- Generator: Adobe Illustrator 23.0.1, SVG Export Plug-In . SVG Version: 6.00 Build 0)  -->
<svg version="1.1" id="Livello_1" xmlns="http://www.w3.org/2000/svg" xmlns:xlink="http://www.w3.org/1999/xlink" x="0px" y="0px"
	 viewBox="0 0 348.66 99.21" style="enable-background:new 0 0 348.66 99.21;" xml:space="preserve">
<style type="text/css">
	.st0{fill:#FFFFFF;}
	.st1{filter:url(#Adobe_OpacityMaskFilter);}
	.st2{fill:url(#SVGID_2_);}
	.st3{opacity:0.4;mask:url(#SVGID_1_);}
	.st4{fill:#FFFFFF;stroke:#FFFFFF;stroke-width:0.75;stroke-linecap:round;stroke-linejoin:round;stroke-miterlimit:10;}
</style>
<defs>
	<filter id="Adobe_OpacityMaskFilter" filterUnits="userSpaceOnUse" x="57.38" y="21.48" width="42.09" height="63.44">
		<feColorMatrix  type="matrix" values="1 0 0 0 0  0 1 0 0 0  0 0 1 0 0  0 0 0 1 0"/>
	</filter>
</defs>
<mask maskUnits="userSpaceOnUse" x="57.38" y="21.48" width="42.09" height="63.44" id="SVGID_1_">
	<g class="st1">
		
			<radialGradient id="SVGID_2_" cx="60.8388" cy="37.7849" r="55.7978" gradientTransform="matrix(0.6574 0.7536 -0.3469 0.3026 33.9523 -19.4955)" gradientUnits="userSpaceOnUse">
			<stop  offset="0" style="stop-color:#FFFFFF"/>
			<stop  offset="0.1021" style="stop-color:#F2F2F2"/>
			<stop  offset="0.3066" style="stop-color:#D0D0D0"/>
			<stop  offset="0.5946" style="stop-color:#939393"/>
			<stop  offset="0.9523" style="stop-color:#2B2B2A"/>
			<stop  offset="1" style="stop-color:#000000"/>
		</radialGradient>
		<path class="st2" d="M60.94,29.6c0.85-1.41,1.31-3.02,1.26-4.66c-0.17-5.57,0.4-16.75,5.78-18.56
			c6.64-2.23,16.43,5.98,21.84,15.77s11.88,19.92,15.03,40.19c3.15,20.27,0.17,33.55-3.84,34.77s-22.02-2.62-28.31-4.72
			c-6.29-2.1-12.3-2.5-10.52-14.7s2.83-12.38,0.91-16.23s-6.9-13.12-5.33-22.21C58.62,34.25,59.94,31.27,60.94,29.6z"/>
	</g>
</mask>
<g class="st3">
	<g>
		<path class="st4" d="M86.29,70.15c0.81-3.46-10.2-18.14-12.99-20.81c-2.9-2.78-8.71-5.32-11.2-7.32
			c-2.66-2.14-4.34-2.77-4.34-2.77l1.68-5.95l1.06,1.1c0,0,5.62,7.22,12.13,7.92c6.52,0.7,11.33-4.81,12.03-7.22
			s-1.48-3.91-2.85-7.32s-2.17-4.65-2.17-5.93c0.2,0.62,4.41,11.4,5.82,11.07c1.4-0.33,5.11-1.13,5.62-1.58
			c0.5-0.45-2.81,1.45-4.21,3.66c-1.4,2.21-4.69,5.92-5.05,8.32c-0.36,2.41-0.08,2.79,2.53,5s6.93,2.02,10.34,1.92
			c3.41-0.1,4.41,0.01,4.41,0.01s-6.82,1.6-10.93,0.59c-4.11-1,1.1,0.2,2.91,3.81c1.8,3.61,2.09,5.54,2.09,5.54s-1.89-4.52-4.3-6.33
			c-2.41-1.82-5.41-2.02-8.22-4.82c-2.81-2.81-5.21-2.31-5.21-2.31s5.07,7.71,7.42,11.53c5.99,9.74,12.89,9.81,10.79,10.03
			c-1.38,0.15-4.07-2.31-2.76,1.5c1.3,3.81,3.21,7.56,4.21,10.35c1,2.79,4.01,4.39,4.01,4.39s-3.68-1.44-5.08-5.37
			S90.17,71,89.37,69.9c-0.8-1.1,0.2,6.32,0,8.72c-0.2,2.41-1.91,5.92-1.91,5.92s2.79-7.3,0.2-15.14c0.3,3.71-3.29,10.73-5.86,11.83
			C83.65,78.43,86.79,74.16,86.29,70.15z"/>
		<path class="st4" d="M77.55,74.52c0,0,8.24-3.82,8.7-5.52C85.48,71.58,88.93,71.78,77.55,74.52z"/>
	</g>
	<path class="st4" d="M84.19,32.15c-1.88-1.26-5.76-4.38-5.76-4.38s2.2,2.71,4.49,4.59c0.86,0.7,1.46,1.67,1.74,2.75l0,0
		L84.19,32.15z"/>
</g>
<g>
	<path class="st0" d="M105.84,62.18c-2.9-18.7-8.65-28.94-13.72-37.97c-0.48-0.86-0.96-1.7-1.42-2.55
		C85.2,11.73,75.07,2.93,67.66,5.43c-6.29,2.11-6.61,14.37-6.46,19.54c0.04,1.41-0.34,2.83-1.12,4.12c-0.2,0.33-0.41,0.72-0.63,1.16
		c-0.38-0.65-0.74-1.32-1.06-1.99c-0.54-1.16-1.01-2.37-1.21-3.57c-0.06-0.31-0.07-0.58-0.09-0.9l-0.03-1l-0.06-2l-0.12-4
		l-0.5-16.01l-0.5,16.01l-0.12,4l-0.06,2l-0.03,1c0,0.34,0,0.74,0.04,1.09c0.15,1.45,0.59,2.78,1.1,4.07
		c0.49,1.23,1.07,2.4,1.7,3.55c-0.48,1.28-0.95,2.84-1.36,4.74c-2.17-1.8-3.24-1.8-3.64-1.8c-1.22,0-2.7,0.99-3.92,2.04
		c-0.33-0.48-0.68-0.95-1.05-1.41c-0.02-0.13-0.03-0.27-0.05-0.4c-0.11-0.92-0.21-1.81-0.3-2.67c0.62-1.08,1.18-2.16,1.68-3.29
		c0.57-1.3,1.04-2.65,1.32-4.09c0.06-0.36,0.11-0.73,0.13-1.11c0.02-0.39,0.02-0.76,0-1.09l-0.06-2.06l-0.12-4.12l-0.5-16.47
		l-0.5,16.47l-0.12,4.12l-0.06,2.06c0,0.36-0.03,0.67-0.06,0.97c-0.03,0.3-0.1,0.62-0.17,0.93c-0.39,1.5-1.04,2.97-1.82,4.38
		c-0.08-1.12-0.13-2.18-0.1-3.17c0.25-9.86-1.25-16.37-4.47-19.33c-1.5-1.39-3.35-1.98-5.5-1.75c-7.21,0.77-17.51,8.13-25.47,25.85
		C5.93,36.07,1.76,43.72,1.76,52.32c0,3.33,0.63,6.52,1.77,9.46C1,77.49,1.63,91.07,4.63,96.1c0.76,1.28,1.69,2.03,2.74,2.23
		c1.48,0.28,2.81,0.37,4.16,0.37c1.38,0,2.77-0.1,4.32-0.22c3.05-0.22,6.84-0.5,12.61-0.14c7,0.44,12.63-1.14,16.28-4.57
		c2.82-2.65,4.3-6.35,4.3-10.7c0-3.42-0.17-6.46-0.33-9.4c-0.09-1.68-0.18-3.34-0.24-5.02c3.58-4.48,5.73-10.16,5.73-16.33
		c0-4.78-1.29-9.27-3.54-13.13c1.13-1,2.24-1.76,2.84-1.76c0.47,0,1.57,0.57,3.22,2.11c-1.33,8.83,3.06,17.57,5.19,21.8l0.29,0.58
		c1.23,2.47,1.13,3.08,0.28,7.82c-0.33,1.84-0.78,4.37-1.28,7.81C59.46,89.35,64.82,91,70.5,92.74c0.62,0.19,1.25,0.38,1.88,0.59
		c5.3,1.77,19.72,4.99,26.38,4.99c1.06,0,1.93-0.08,2.53-0.26C107.34,96.23,108.35,78.38,105.84,62.18z M48.04,55.23
		c-0.23,1.76-0.38,3.4-0.48,4.97c-0.08,1.22-0.12,2.4-0.14,3.53c-0.2,0.75-0.43,1.49-0.68,2.23c-3.74,5.12-9.51,8.67-16.13,9.42
		c0.02-0.09,0.04-0.16,0.05-0.27c0.48-3.75-4.58-9.01-7.14-11.22c-1.47-1.26-4.79-4.06-6.95-7.07c1.17,0.09,2.42,0.31,3.68,0.46
		c5.1,0.6,18.8,4.39,22.96-4.25c0.88-1.82,1.14-3.58,0.98-5.25c0.09-0.05,0.18-0.09,0.27-0.14c2.17-1.3,3.3-2.99,3.77-4.45
		C48.51,47.01,48.58,51.07,48.04,55.23z M11.43,36.06c4.05-4.12,9.62-6.74,15.79-6.94c0.44,4.1,9.19,10.93,13.21,14.92
		c0.8,0.79,1.43,1.58,1.91,2.35c-3.28,0.47-7.3-0.37-9.72-0.81c-4.71-0.86-13.86-3.51-18.36,4.12c-1.07,1.82-1.36,3.7-1.15,5.54
		c-3.78,2.59-4.6,8.05-4.6,8.05s-0.02,0.7-0.03,1.63c-1.46-2.26-2.55-4.78-3.16-7.48c0.96-4.89,2.22-9.95,3.85-15.04
		C9.9,40.15,10.66,38.05,11.43,36.06z M43.88,46.04c-1.49-5.47-7.16-9.84-9.81-12.07c-2.52-2.12-3.42-3.86-3.75-4.76
		c7.3,0.73,13.6,4.86,17.32,10.77c-0.01,0-0.02-0.01-0.03-0.01C47.84,43.56,46.21,45.3,43.88,46.04z M15.11,54.27
		c-0.59-1.42-0.75-2.8-0.15-4.03c2.21-4.59,8.8-2.77,13.75-2.23c4.52,0.49,9.95,2.14,14.48,0.26c0.7,2.45-0.37,4.55-2.94,5.8
		c-3.97,1.94-18.34-1.3-24.45,0C15.55,54.12,15.33,54.2,15.11,54.27z M22.35,69.07c3.46,3.08,5.14,6.19,5.14,6.19
		s0.08,0.11,0.21,0.26c-7.57-0.09-14.27-3.82-18.45-9.51c0.02-0.16,0.03-0.32,0.05-0.49c0.55-5.52,2.11-7.69,4.2-8.42
		C15.02,62.28,19.99,66.97,22.35,69.07z M38.03,7.43c1.56-0.17,2.85,0.23,3.93,1.23c2.7,2.49,4.05,8.81,3.82,17.81
		c-0.03,1.13,0.03,2.38,0.13,3.67c-0.89-1.32-1.93-2.45-2.59-3.83c-0.82-1.62-1.2-3.45-1.42-5.28c-0.21-1.84-0.26-3.7-0.18-5.55
		c-0.17,1.85-0.2,3.71-0.07,5.57c0.14,1.85,0.43,3.74,1.22,5.48c0.75,1.76,2.09,3.17,2.89,4.76c0.12,0.23,0.21,0.48,0.31,0.72
		c0.05,0.5,0.11,1.02,0.16,1.53c-4.72-4.59-11.16-7.42-18.25-7.42c-4.52,0-8.78,1.15-12.5,3.18C25.23,9.46,36.55,7.58,38.03,7.43z
		 M4.76,52.32c0-5.3,1.79-10.18,4.79-14.09c-0.45,1.25-0.89,2.53-1.32,3.87c-1.34,4.18-2.44,8.39-3.34,12.52
		C4.82,53.86,4.76,53.09,4.76,52.32z M46.71,73.78c0.16,2.91,0.33,5.93,0.33,9.29c0,3.84-1.24,6.95-3.67,9.24
		c-3.19,3-8.44,4.43-14.78,4.04c-5.91-0.37-9.78-0.08-12.88,0.14c-3.03,0.22-5.23,0.38-7.96-0.13c-0.58-0.11-1.08-0.76-1.39-1.29
		C3.97,91.1,3.09,79.45,5.07,65.04c4.48,8.04,13.07,13.49,22.91,13.49c7.25,0,13.83-2.96,18.58-7.74
		C46.61,71.79,46.66,72.78,46.71,73.78z M48.43,63.26c0.06-2.42,0.23-5,0.61-7.9c0.56-4.31,0.48-8.47,0.19-12.39
		c1.27,2.86,1.98,6.02,1.98,9.34C51.2,56.27,50.18,59.99,48.43,63.26z M73.01,91.44c-0.65-0.22-1.29-0.42-1.93-0.61
		c-5.45-1.68-9.39-2.89-7.92-13c0.5-3.41,0.94-5.92,1.27-7.75c0.45-2.52,0.72-4.04,0.66-5.34c1.95,2.19,4.14,4.15,6.63,5.73
		c1.82,1.12,3.79,1.82,5.58,2.83c1.8,0.99,3.54,2.13,4.93,3.62c1.37,1.49,2.28,3.43,2.31,5.48c0.04,2.06-0.06,4.17,0.28,6.24
		c0.32,2.06,1.2,4.11,2.78,5.51c0.43,0.41,0.91,0.76,1.4,1.07C83.05,94.17,76.44,92.59,73.01,91.44z M100.71,96.15
		c-1.69,0.51-6.32,0.01-11.46-0.89c-0.56-0.34-1.08-0.74-1.55-1.2c-1.53-1.41-2.34-3.42-2.62-5.46c-0.29-2.05-0.15-4.12-0.15-6.21
		c0.02-2.14-0.91-4.22-2.31-5.81c-1.42-1.59-3.19-2.79-5-3.84c-1.81-1.07-3.79-1.82-5.48-2.92c-2.83-1.86-5.28-4.29-7.37-6.96
		c-0.18-0.56-0.44-1.16-0.78-1.86l-0.29-0.58c-2.07-4.12-6.39-12.68-4.94-21.01c0.85-4.91,2.13-7.77,3.06-9.31
		c0.52-0.87,0.89-1.8,1.13-2.75c0.33-0.41,0.67-0.81,1.03-1.21c1.04-1.13,2.14-2.25,3.06-3.52c0.44-0.62,0.95-1.28,1.15-2.08
		c0.22-0.78,0.21-1.6,0.05-2.37c-0.34-1.55-1.17-2.91-2.16-4.08c0.93,1.22,1.68,2.63,1.92,4.13c0.11,0.75,0.08,1.51-0.16,2.21
		c-0.22,0.71-0.71,1.29-1.19,1.89c-0.96,1.19-2.09,2.21-3.2,3.3c-0.09,0.09-0.17,0.18-0.26,0.26c0.03-0.33,0.05-0.66,0.04-0.99
		c-0.23-7.6,0.99-16.2,5.09-17.58c0.64-0.22,1.32-0.32,2.03-0.32c6.05,0,14.13,7.51,18.62,15.62c0.47,0.85,0.95,1.7,1.43,2.56
		c4.99,8.89,10.64,18.96,13.49,37.3C106.98,82.6,103.98,95.16,100.71,96.15z"/>
</g>
</svg>